<mxfile host="Electron" agent="Mozilla/5.0 (Windows NT 10.0; Win64; x64) AppleWebKit/537.36 (KHTML, like Gecko) draw.io/24.7.17 Chrome/128.0.6613.36 Electron/32.0.1 Safari/537.36" version="24.7.17">
  <diagram name="Halaman-1" id="DyidNCb4UCem89zS9mwM">
    <mxGraphModel dx="4036" dy="3344" grid="1" gridSize="10" guides="1" tooltips="1" connect="1" arrows="1" fold="1" page="1" pageScale="1" pageWidth="850" pageHeight="1100" math="0" shadow="0">
      <root>
        <mxCell id="0" />
        <mxCell id="1" parent="0" />
        <mxCell id="rxGvKUkwGFX3X11VJj27-8" value="FLOWCHART Pembelian Tembakau" style="text;html=1;align=center;verticalAlign=middle;resizable=0;points=[];autosize=1;strokeColor=none;fillColor=none;fontSize=16;labelBackgroundColor=none;fontStyle=1;fontColor=#1D3557;" vertex="1" parent="1">
          <mxGeometry x="2540" y="50" width="280" height="30" as="geometry" />
        </mxCell>
        <mxCell id="rxGvKUkwGFX3X11VJj27-9" value="" style="edgeStyle=orthogonalEdgeStyle;rounded=0;orthogonalLoop=1;jettySize=auto;html=1;labelBackgroundColor=none;strokeColor=#457B9D;fontColor=default;align=center;" edge="1" parent="1" source="rxGvKUkwGFX3X11VJj27-10" target="rxGvKUkwGFX3X11VJj27-12">
          <mxGeometry relative="1" as="geometry" />
        </mxCell>
        <mxCell id="rxGvKUkwGFX3X11VJj27-10" value="&lt;font color=&quot;#000000&quot;&gt;START&lt;/font&gt;" style="strokeWidth=2;html=1;shape=mxgraph.flowchart.terminator;whiteSpace=wrap;align=center;fillColor=#A8DADC;strokeColor=#457B9D;fontStyle=1;labelBackgroundColor=none;fontColor=#1D3557;" vertex="1" parent="1">
          <mxGeometry x="2650" y="90" width="80" height="30" as="geometry" />
        </mxCell>
        <mxCell id="rxGvKUkwGFX3X11VJj27-11" value="" style="edgeStyle=orthogonalEdgeStyle;rounded=0;orthogonalLoop=1;jettySize=auto;html=1;labelBackgroundColor=none;strokeColor=#457B9D;fontColor=default;align=center;" edge="1" parent="1" source="rxGvKUkwGFX3X11VJj27-12" target="rxGvKUkwGFX3X11VJj27-15">
          <mxGeometry relative="1" as="geometry" />
        </mxCell>
        <mxCell id="rxGvKUkwGFX3X11VJj27-12" value="&lt;font style=&quot;font-size: 10px;&quot;&gt;Output Pilihan:&lt;/font&gt;&lt;div&gt;&lt;font style=&quot;font-size: 10px;&quot;&gt;1. Register&lt;/font&gt;&lt;/div&gt;&lt;div&gt;&lt;font style=&quot;font-size: 10px;&quot;&gt;2. Login&lt;/font&gt;&lt;/div&gt;&lt;div&gt;&lt;font style=&quot;font-size: 10px;&quot;&gt;3. Exit&lt;/font&gt;&lt;/div&gt;" style="shape=parallelogram;html=1;strokeWidth=2;perimeter=parallelogramPerimeter;whiteSpace=wrap;rounded=1;arcSize=12;size=0.23;align=center;fillColor=#A8DADC;strokeColor=#457B9D;labelBackgroundColor=none;fontColor=#1D3557;" vertex="1" parent="1">
          <mxGeometry x="2623.19" y="150" width="133.63" height="60" as="geometry" />
        </mxCell>
        <mxCell id="rxGvKUkwGFX3X11VJj27-13" value="" style="edgeStyle=orthogonalEdgeStyle;rounded=0;orthogonalLoop=1;jettySize=auto;html=1;strokeColor=#457B9D;fontColor=#1D3557;fillColor=#A8DADC;align=center;" edge="1" parent="1" source="rxGvKUkwGFX3X11VJj27-15" target="rxGvKUkwGFX3X11VJj27-18">
          <mxGeometry relative="1" as="geometry" />
        </mxCell>
        <mxCell id="rxGvKUkwGFX3X11VJj27-14" value="" style="edgeStyle=orthogonalEdgeStyle;rounded=0;orthogonalLoop=1;jettySize=auto;html=1;strokeColor=#457B9D;fontColor=#1D3557;fillColor=#A8DADC;align=center;" edge="1" parent="1" source="rxGvKUkwGFX3X11VJj27-15" target="rxGvKUkwGFX3X11VJj27-20">
          <mxGeometry relative="1" as="geometry" />
        </mxCell>
        <mxCell id="rxGvKUkwGFX3X11VJj27-15" value="if = 1" style="strokeWidth=2;html=1;shape=mxgraph.flowchart.decision;whiteSpace=wrap;labelBackgroundColor=none;fillColor=#A8DADC;strokeColor=#457B9D;fontColor=#1D3557;align=center;" vertex="1" parent="1">
          <mxGeometry x="2636.8199999999997" y="240" width="106.37" height="60" as="geometry" />
        </mxCell>
        <mxCell id="rxGvKUkwGFX3X11VJj27-16" value="" style="edgeStyle=orthogonalEdgeStyle;rounded=0;orthogonalLoop=1;jettySize=auto;html=1;strokeColor=#457B9D;fontColor=#1D3557;fillColor=#A8DADC;align=center;" edge="1" parent="1" source="rxGvKUkwGFX3X11VJj27-18">
          <mxGeometry relative="1" as="geometry">
            <mxPoint x="1820" y="500" as="targetPoint" />
          </mxGeometry>
        </mxCell>
        <mxCell id="rxGvKUkwGFX3X11VJj27-17" value="" style="edgeStyle=orthogonalEdgeStyle;rounded=0;orthogonalLoop=1;jettySize=auto;html=1;strokeColor=#457B9D;fontColor=#1D3557;fillColor=#A8DADC;" edge="1" parent="1" source="rxGvKUkwGFX3X11VJj27-18" target="rxGvKUkwGFX3X11VJj27-37">
          <mxGeometry relative="1" as="geometry" />
        </mxCell>
        <mxCell id="rxGvKUkwGFX3X11VJj27-18" value="if = 2" style="strokeWidth=2;html=1;shape=mxgraph.flowchart.decision;whiteSpace=wrap;labelBackgroundColor=none;fillColor=#A8DADC;strokeColor=#457B9D;fontColor=#1D3557;align=center;" vertex="1" parent="1">
          <mxGeometry x="2280" y="320" width="106.37" height="60" as="geometry" />
        </mxCell>
        <mxCell id="rxGvKUkwGFX3X11VJj27-19" value="" style="edgeStyle=orthogonalEdgeStyle;rounded=0;orthogonalLoop=1;jettySize=auto;html=1;strokeColor=#457B9D;fontColor=#1D3557;fillColor=#A8DADC;" edge="1" parent="1" source="rxGvKUkwGFX3X11VJj27-20" target="rxGvKUkwGFX3X11VJj27-23">
          <mxGeometry relative="1" as="geometry" />
        </mxCell>
        <mxCell id="rxGvKUkwGFX3X11VJj27-20" value="&lt;br&gt;&lt;div&gt;&lt;span style=&quot;font-size: 11px;&quot;&gt;input+&quot;Masukan username&quot;&lt;/span&gt;&lt;/div&gt;&lt;div&gt;&lt;span style=&quot;font-size: 11px; background-color: initial;&quot;&gt;input=&quot;Masukan password&quot;&lt;/span&gt;&lt;br&gt;&lt;/div&gt;&lt;div&gt;&lt;span style=&quot;background-color: initial; font-size: 11px;&quot;&gt;input=&quot;role&quot;&lt;/span&gt;&lt;/div&gt;" style="shape=parallelogram;perimeter=parallelogramPerimeter;whiteSpace=wrap;html=1;fixedSize=1;fillColor=#A8DADC;strokeColor=#457B9D;fontColor=#1D3557;strokeWidth=2;labelBackgroundColor=none;align=center;" vertex="1" parent="1">
          <mxGeometry x="2840" y="268" width="170" height="70" as="geometry" />
        </mxCell>
        <mxCell id="rxGvKUkwGFX3X11VJj27-21" value="" style="edgeStyle=orthogonalEdgeStyle;rounded=0;orthogonalLoop=1;jettySize=auto;html=1;strokeColor=#457B9D;fontColor=#1D3557;fillColor=#A8DADC;" edge="1" parent="1" source="rxGvKUkwGFX3X11VJj27-23" target="rxGvKUkwGFX3X11VJj27-26">
          <mxGeometry relative="1" as="geometry" />
        </mxCell>
        <mxCell id="rxGvKUkwGFX3X11VJj27-22" value="" style="edgeStyle=orthogonalEdgeStyle;rounded=0;orthogonalLoop=1;jettySize=auto;html=1;strokeColor=#457B9D;fontColor=#1D3557;fillColor=#A8DADC;" edge="1" parent="1" source="rxGvKUkwGFX3X11VJj27-23" target="rxGvKUkwGFX3X11VJj27-31">
          <mxGeometry relative="1" as="geometry" />
        </mxCell>
        <mxCell id="rxGvKUkwGFX3X11VJj27-23" value="if user == username for user in users" style="rhombus;whiteSpace=wrap;html=1;fillColor=#A8DADC;strokeColor=#457B9D;fontColor=#1D3557;strokeWidth=2;labelBackgroundColor=none;" vertex="1" parent="1">
          <mxGeometry x="2761.05" y="410" width="288.95" height="100" as="geometry" />
        </mxCell>
        <mxCell id="rxGvKUkwGFX3X11VJj27-24" value="true" style="text;html=1;align=center;verticalAlign=middle;resizable=0;points=[];autosize=1;strokeColor=none;fillColor=none;fontColor=#1D3557;" vertex="1" parent="1">
          <mxGeometry x="2760" y="238" width="40" height="30" as="geometry" />
        </mxCell>
        <mxCell id="rxGvKUkwGFX3X11VJj27-25" value="false" style="text;html=1;align=center;verticalAlign=middle;resizable=0;points=[];autosize=1;strokeColor=none;fillColor=none;fontColor=#1D3557;" vertex="1" parent="1">
          <mxGeometry x="2565" y="240" width="50" height="30" as="geometry" />
        </mxCell>
        <mxCell id="rxGvKUkwGFX3X11VJj27-26" value="Output &quot;Username sudah terdaftar!&quot;" style="shape=parallelogram;perimeter=parallelogramPerimeter;whiteSpace=wrap;html=1;fixedSize=1;fillColor=#A8DADC;strokeColor=#457B9D;fontColor=#1D3557;strokeWidth=2;labelBackgroundColor=none;" vertex="1" parent="1">
          <mxGeometry x="2580" y="430" width="130" height="60" as="geometry" />
        </mxCell>
        <mxCell id="rxGvKUkwGFX3X11VJj27-27" value="" style="endArrow=classic;html=1;rounded=0;strokeColor=#457B9D;fontColor=#1D3557;fillColor=#A8DADC;exitX=0.555;exitY=0.06;exitDx=0;exitDy=0;exitPerimeter=0;entryX=0.043;entryY=0.616;entryDx=0;entryDy=0;entryPerimeter=0;" edge="1" parent="1" source="rxGvKUkwGFX3X11VJj27-26" target="rxGvKUkwGFX3X11VJj27-20">
          <mxGeometry width="50" height="50" relative="1" as="geometry">
            <mxPoint x="2850" y="560" as="sourcePoint" />
            <mxPoint x="2710" y="320" as="targetPoint" />
            <Array as="points">
              <mxPoint x="2652" y="310" />
            </Array>
          </mxGeometry>
        </mxCell>
        <mxCell id="rxGvKUkwGFX3X11VJj27-28" style="edgeStyle=orthogonalEdgeStyle;rounded=0;orthogonalLoop=1;jettySize=auto;html=1;" edge="1" parent="1" source="rxGvKUkwGFX3X11VJj27-138">
          <mxGeometry relative="1" as="geometry">
            <mxPoint x="4381" y="550" as="targetPoint" />
          </mxGeometry>
        </mxCell>
        <mxCell id="rxGvKUkwGFX3X11VJj27-29" style="edgeStyle=orthogonalEdgeStyle;rounded=0;orthogonalLoop=1;jettySize=auto;html=1;exitX=0.5;exitY=0;exitDx=0;exitDy=0;entryX=1;entryY=0.75;entryDx=0;entryDy=0;" edge="1" parent="1" source="rxGvKUkwGFX3X11VJj27-31" target="rxGvKUkwGFX3X11VJj27-12">
          <mxGeometry relative="1" as="geometry">
            <Array as="points">
              <mxPoint x="3245" y="200" />
              <mxPoint x="2742" y="200" />
              <mxPoint x="2742" y="190" />
            </Array>
          </mxGeometry>
        </mxCell>
        <mxCell id="rxGvKUkwGFX3X11VJj27-30" style="edgeStyle=orthogonalEdgeStyle;rounded=0;orthogonalLoop=1;jettySize=auto;html=1;exitX=1;exitY=0.25;exitDx=0;exitDy=0;entryX=0;entryY=0.5;entryDx=0;entryDy=0;" edge="1" parent="1" source="rxGvKUkwGFX3X11VJj27-31" target="rxGvKUkwGFX3X11VJj27-126">
          <mxGeometry relative="1" as="geometry">
            <Array as="points">
              <mxPoint x="3315" y="372" />
            </Array>
          </mxGeometry>
        </mxCell>
        <mxCell id="rxGvKUkwGFX3X11VJj27-31" value="Output &quot;usename sudah terdaftar&lt;span style=&quot;background-color: initial;&quot;&gt;.&quot;&lt;/span&gt;" style="shape=parallelogram;perimeter=parallelogramPerimeter;whiteSpace=wrap;html=1;fixedSize=1;fillColor=#A8DADC;strokeColor=#457B9D;fontColor=#1D3557;strokeWidth=2;labelBackgroundColor=none;" vertex="1" parent="1">
          <mxGeometry x="3170.01" y="430" width="149.99" height="60" as="geometry" />
        </mxCell>
        <mxCell id="rxGvKUkwGFX3X11VJj27-32" value="False" style="text;html=1;align=center;verticalAlign=middle;resizable=0;points=[];autosize=1;strokeColor=none;fillColor=none;fontColor=#1D3557;" vertex="1" parent="1">
          <mxGeometry x="2711.05" y="430" width="50" height="30" as="geometry" />
        </mxCell>
        <mxCell id="rxGvKUkwGFX3X11VJj27-33" value="True" style="text;html=1;align=center;verticalAlign=middle;resizable=0;points=[];autosize=1;strokeColor=none;fillColor=none;fontColor=#1D3557;" vertex="1" parent="1">
          <mxGeometry x="3083" y="428" width="50" height="30" as="geometry" />
        </mxCell>
        <mxCell id="rxGvKUkwGFX3X11VJj27-34" value="" style="edgeStyle=orthogonalEdgeStyle;rounded=0;orthogonalLoop=1;jettySize=auto;html=1;strokeColor=#457B9D;fontColor=#1D3557;fillColor=#A8DADC;" edge="1" parent="1" source="rxGvKUkwGFX3X11VJj27-37" target="rxGvKUkwGFX3X11VJj27-42">
          <mxGeometry relative="1" as="geometry" />
        </mxCell>
        <mxCell id="rxGvKUkwGFX3X11VJj27-35" value="" style="edgeLabel;html=1;align=center;verticalAlign=middle;resizable=0;points=[];strokeColor=#457B9D;fontColor=#1D3557;fillColor=#A8DADC;" vertex="1" connectable="0" parent="rxGvKUkwGFX3X11VJj27-34">
          <mxGeometry x="-0.0011" y="-1" relative="1" as="geometry">
            <mxPoint as="offset" />
          </mxGeometry>
        </mxCell>
        <mxCell id="rxGvKUkwGFX3X11VJj27-36" value="" style="edgeLabel;html=1;align=center;verticalAlign=middle;resizable=0;points=[];strokeColor=#457B9D;fontColor=#1D3557;fillColor=#A8DADC;" vertex="1" connectable="0" parent="rxGvKUkwGFX3X11VJj27-34">
          <mxGeometry x="-0.0381" relative="1" as="geometry">
            <mxPoint as="offset" />
          </mxGeometry>
        </mxCell>
        <mxCell id="rxGvKUkwGFX3X11VJj27-37" value="Input = masukkan username&lt;div&gt;Input = masukkan password&lt;/div&gt;" style="shape=parallelogram;perimeter=parallelogramPerimeter;whiteSpace=wrap;html=1;fixedSize=1;fillColor=#A8DADC;strokeColor=#457B9D;fontColor=#1D3557;strokeWidth=2;labelBackgroundColor=none;" vertex="1" parent="1">
          <mxGeometry x="2410" y="550" width="130" height="60" as="geometry" />
        </mxCell>
        <mxCell id="rxGvKUkwGFX3X11VJj27-38" value="True" style="text;html=1;align=center;verticalAlign=middle;resizable=0;points=[];autosize=1;strokeColor=none;fillColor=none;fontColor=#1D3557;" vertex="1" parent="1">
          <mxGeometry x="2415" y="318" width="50" height="30" as="geometry" />
        </mxCell>
        <mxCell id="rxGvKUkwGFX3X11VJj27-39" value="False" style="text;html=1;align=center;verticalAlign=middle;resizable=0;points=[];autosize=1;strokeColor=none;fillColor=none;fontColor=#1D3557;" vertex="1" parent="1">
          <mxGeometry x="2195" y="318" width="50" height="30" as="geometry" />
        </mxCell>
        <mxCell id="rxGvKUkwGFX3X11VJj27-40" value="" style="edgeStyle=orthogonalEdgeStyle;rounded=0;orthogonalLoop=1;jettySize=auto;html=1;strokeColor=#457B9D;fontColor=#1D3557;fillColor=#A8DADC;" edge="1" parent="1" source="rxGvKUkwGFX3X11VJj27-42" target="rxGvKUkwGFX3X11VJj27-44">
          <mxGeometry relative="1" as="geometry" />
        </mxCell>
        <mxCell id="rxGvKUkwGFX3X11VJj27-41" value="" style="edgeStyle=orthogonalEdgeStyle;rounded=0;orthogonalLoop=1;jettySize=auto;html=1;strokeColor=#457B9D;fontColor=#1D3557;fillColor=#A8DADC;" edge="1" parent="1" source="rxGvKUkwGFX3X11VJj27-42" target="rxGvKUkwGFX3X11VJj27-46">
          <mxGeometry relative="1" as="geometry" />
        </mxCell>
        <mxCell id="rxGvKUkwGFX3X11VJj27-42" value="if users[0]== Username and&lt;div&gt;&amp;nbsp;users[1]== Password&lt;/div&gt;" style="rhombus;whiteSpace=wrap;html=1;fillColor=#A8DADC;strokeColor=#457B9D;fontColor=#1D3557;strokeWidth=2;labelBackgroundColor=none;" vertex="1" parent="1">
          <mxGeometry x="2376.25" y="730" width="197.5" height="110" as="geometry" />
        </mxCell>
        <mxCell id="rxGvKUkwGFX3X11VJj27-43" value="" style="edgeStyle=orthogonalEdgeStyle;rounded=0;orthogonalLoop=1;jettySize=auto;html=1;strokeColor=#457B9D;fontColor=#1D3557;fillColor=#A8DADC;" edge="1" parent="1" source="rxGvKUkwGFX3X11VJj27-44" target="rxGvKUkwGFX3X11VJj27-49">
          <mxGeometry relative="1" as="geometry" />
        </mxCell>
        <mxCell id="rxGvKUkwGFX3X11VJj27-44" value="status = users[2]" style="whiteSpace=wrap;html=1;fillColor=#A8DADC;strokeColor=#457B9D;fontColor=#1D3557;strokeWidth=2;labelBackgroundColor=none;" vertex="1" parent="1">
          <mxGeometry x="2650" y="755" width="120" height="60" as="geometry" />
        </mxCell>
        <mxCell id="rxGvKUkwGFX3X11VJj27-45" value="True" style="text;html=1;align=center;verticalAlign=middle;resizable=0;points=[];autosize=1;strokeColor=none;fillColor=none;fontColor=#1D3557;" vertex="1" parent="1">
          <mxGeometry x="2580" y="755" width="50" height="30" as="geometry" />
        </mxCell>
        <mxCell id="rxGvKUkwGFX3X11VJj27-46" value="Output &quot;Login gagal! Username atau Password salah&quot;" style="shape=parallelogram;perimeter=parallelogramPerimeter;whiteSpace=wrap;html=1;fixedSize=1;fillColor=#A8DADC;strokeColor=#457B9D;fontColor=#1D3557;strokeWidth=2;labelBackgroundColor=none;" vertex="1" parent="1">
          <mxGeometry x="2090" y="747.5" width="167.5" height="75" as="geometry" />
        </mxCell>
        <mxCell id="rxGvKUkwGFX3X11VJj27-47" value="" style="endArrow=classic;html=1;rounded=0;strokeColor=#457B9D;fontColor=#1D3557;fillColor=#A8DADC;exitX=0.537;exitY=-0.037;exitDx=0;exitDy=0;exitPerimeter=0;entryX=0;entryY=0.5;entryDx=0;entryDy=0;" edge="1" parent="1" source="rxGvKUkwGFX3X11VJj27-46" target="rxGvKUkwGFX3X11VJj27-37">
          <mxGeometry width="50" height="50" relative="1" as="geometry">
            <mxPoint x="2370" y="670" as="sourcePoint" />
            <mxPoint x="2420" y="620" as="targetPoint" />
            <Array as="points">
              <mxPoint x="2180" y="580" />
            </Array>
          </mxGeometry>
        </mxCell>
        <mxCell id="rxGvKUkwGFX3X11VJj27-48" value="" style="edgeStyle=orthogonalEdgeStyle;rounded=0;orthogonalLoop=1;jettySize=auto;html=1;strokeColor=#457B9D;fontColor=#1D3557;fillColor=#A8DADC;" edge="1" parent="1" source="rxGvKUkwGFX3X11VJj27-49" target="rxGvKUkwGFX3X11VJj27-51">
          <mxGeometry relative="1" as="geometry" />
        </mxCell>
        <mxCell id="rxGvKUkwGFX3X11VJj27-49" value="Output &quot;Login Berhasil, anda masuk sebagai {status}&quot;" style="shape=parallelogram;perimeter=parallelogramPerimeter;whiteSpace=wrap;html=1;fixedSize=1;fillColor=#A8DADC;strokeColor=#457B9D;fontColor=#1D3557;strokeWidth=2;labelBackgroundColor=none;" vertex="1" parent="1">
          <mxGeometry x="2615" y="870" width="190" height="55" as="geometry" />
        </mxCell>
        <mxCell id="rxGvKUkwGFX3X11VJj27-50" value="" style="edgeStyle=orthogonalEdgeStyle;rounded=0;orthogonalLoop=1;jettySize=auto;html=1;strokeColor=#457B9D;fontColor=#1D3557;fillColor=#A8DADC;" edge="1" parent="1" source="rxGvKUkwGFX3X11VJj27-51" target="rxGvKUkwGFX3X11VJj27-53">
          <mxGeometry relative="1" as="geometry" />
        </mxCell>
        <mxCell id="rxGvKUkwGFX3X11VJj27-51" value="if status == &quot;admin&quot;" style="rhombus;whiteSpace=wrap;html=1;fillColor=#A8DADC;strokeColor=#457B9D;fontColor=#1D3557;strokeWidth=2;labelBackgroundColor=none;" vertex="1" parent="1">
          <mxGeometry x="2620" y="980" width="180" height="67.5" as="geometry" />
        </mxCell>
        <mxCell id="rxGvKUkwGFX3X11VJj27-52" value="" style="edgeStyle=orthogonalEdgeStyle;rounded=0;orthogonalLoop=1;jettySize=auto;html=1;strokeColor=#457B9D;fontColor=#1D3557;fillColor=#A8DADC;" edge="1" parent="1" source="rxGvKUkwGFX3X11VJj27-53" target="rxGvKUkwGFX3X11VJj27-55">
          <mxGeometry relative="1" as="geometry" />
        </mxCell>
        <mxCell id="rxGvKUkwGFX3X11VJj27-53" value="&lt;font face=&quot;Verdana&quot;&gt;Output =&amp;nbsp;&lt;/font&gt;&lt;div&gt;&lt;font face=&quot;Gwa8SxlCsdu1uKtJ1fb-&quot;&gt;&quot; Sistem Admin&lt;/font&gt;&lt;/div&gt;&lt;div&gt;&lt;font face=&quot;Gwa8SxlCsdu1uKtJ1fb-&quot;&gt;1. Tambah pembelian&lt;/font&gt;&lt;/div&gt;&lt;div&gt;&lt;font face=&quot;Gwa8SxlCsdu1uKtJ1fb-&quot;&gt;2. Update pembelian&lt;/font&gt;&lt;/div&gt;&lt;div&gt;&lt;font face=&quot;Gwa8SxlCsdu1uKtJ1fb-&quot;&gt;3. Hapus pembelian&lt;/font&gt;&lt;/div&gt;&lt;div&gt;&lt;span style=&quot;background-color: initial;&quot;&gt;&lt;font face=&quot;Gwa8SxlCsdu1uKtJ1fb-&quot;&gt;4. Lihat pembelian&lt;/font&gt;&lt;/span&gt;&lt;/div&gt;&lt;div&gt;&lt;font face=&quot;Gwa8SxlCsdu1uKtJ1fb-&quot;&gt;5. Log out&quot;&lt;/font&gt;&lt;/div&gt;" style="shape=parallelogram;perimeter=parallelogramPerimeter;whiteSpace=wrap;html=1;fixedSize=1;fillColor=#A8DADC;strokeColor=#457B9D;fontColor=#1D3557;strokeWidth=2;labelBackgroundColor=none;align=center;" vertex="1" parent="1">
          <mxGeometry x="2875" y="959.0699999999999" width="180" height="109.37" as="geometry" />
        </mxCell>
        <mxCell id="rxGvKUkwGFX3X11VJj27-54" value="" style="edgeStyle=orthogonalEdgeStyle;rounded=0;orthogonalLoop=1;jettySize=auto;html=1;strokeColor=#457B9D;fontColor=#1D3557;fillColor=#A8DADC;" edge="1" parent="1" source="rxGvKUkwGFX3X11VJj27-55" target="rxGvKUkwGFX3X11VJj27-58">
          <mxGeometry relative="1" as="geometry" />
        </mxCell>
        <mxCell id="rxGvKUkwGFX3X11VJj27-55" value="Input = 1/2/3/4/5" style="shape=parallelogram;perimeter=parallelogramPerimeter;whiteSpace=wrap;html=1;fixedSize=1;fillColor=#A8DADC;strokeColor=#457B9D;fontColor=#1D3557;strokeWidth=2;labelBackgroundColor=none;" vertex="1" parent="1">
          <mxGeometry x="2910" y="1100.0049999999999" width="120" height="60" as="geometry" />
        </mxCell>
        <mxCell id="rxGvKUkwGFX3X11VJj27-56" value="" style="edgeStyle=orthogonalEdgeStyle;rounded=0;orthogonalLoop=1;jettySize=auto;html=1;strokeColor=#457B9D;fontColor=#1D3557;fillColor=#A8DADC;exitX=0.915;exitY=0.473;exitDx=0;exitDy=0;exitPerimeter=0;" edge="1" parent="1">
          <mxGeometry relative="1" as="geometry">
            <mxPoint x="3036.4" y="1228.8400000000001" as="sourcePoint" />
            <Array as="points">
              <mxPoint x="3036" y="1231" />
              <mxPoint x="3125" y="1231" />
              <mxPoint x="3125" y="1280" />
            </Array>
            <mxPoint x="3125" y="1290" as="targetPoint" />
          </mxGeometry>
        </mxCell>
        <mxCell id="rxGvKUkwGFX3X11VJj27-57" value="" style="edgeStyle=orthogonalEdgeStyle;rounded=0;orthogonalLoop=1;jettySize=auto;html=1;strokeColor=#457B9D;fontColor=#1D3557;fillColor=#A8DADC;" edge="1" parent="1" source="rxGvKUkwGFX3X11VJj27-58" target="rxGvKUkwGFX3X11VJj27-60">
          <mxGeometry relative="1" as="geometry" />
        </mxCell>
        <mxCell id="rxGvKUkwGFX3X11VJj27-58" value="if == 1" style="rhombus;whiteSpace=wrap;html=1;fillColor=#A8DADC;strokeColor=#457B9D;fontColor=#1D3557;strokeWidth=2;labelBackgroundColor=none;" vertex="1" parent="1">
          <mxGeometry x="2890" y="1190" width="160" height="80" as="geometry" />
        </mxCell>
        <mxCell id="rxGvKUkwGFX3X11VJj27-60" value="if == 2" style="rhombus;whiteSpace=wrap;html=1;fillColor=#A8DADC;strokeColor=#457B9D;fontColor=#1D3557;strokeWidth=2;labelBackgroundColor=none;" vertex="1" parent="1">
          <mxGeometry x="2640" y="1290" width="160" height="80" as="geometry" />
        </mxCell>
        <mxCell id="rxGvKUkwGFX3X11VJj27-61" value="True" style="text;html=1;align=center;verticalAlign=middle;resizable=0;points=[];autosize=1;strokeColor=none;fillColor=none;fontColor=#1D3557;" vertex="1" parent="1">
          <mxGeometry x="3055" y="1198" width="50" height="30" as="geometry" />
        </mxCell>
        <mxCell id="rxGvKUkwGFX3X11VJj27-62" value="False" style="text;html=1;align=center;verticalAlign=middle;resizable=0;points=[];autosize=1;strokeColor=none;fillColor=none;fontColor=#1D3557;" vertex="1" parent="1">
          <mxGeometry x="2795" y="1198" width="50" height="30" as="geometry" />
        </mxCell>
        <mxCell id="rxGvKUkwGFX3X11VJj27-69" value="" style="edgeStyle=orthogonalEdgeStyle;rounded=0;orthogonalLoop=1;jettySize=auto;html=1;strokeColor=#457B9D;fontColor=#1D3557;fillColor=#A8DADC;" edge="1" parent="1">
          <mxGeometry relative="1" as="geometry">
            <mxPoint x="2643" y="1329" as="sourcePoint" />
            <mxPoint x="2473" y="1389" as="targetPoint" />
          </mxGeometry>
        </mxCell>
        <mxCell id="rxGvKUkwGFX3X11VJj27-70" value="" style="edgeStyle=orthogonalEdgeStyle;rounded=0;orthogonalLoop=1;jettySize=auto;html=1;strokeColor=#457B9D;fontColor=#1D3557;fillColor=#A8DADC;exitX=0.915;exitY=0.473;exitDx=0;exitDy=0;exitPerimeter=0;" edge="1" parent="1">
          <mxGeometry relative="1" as="geometry">
            <mxPoint x="2801" y="1327" as="sourcePoint" />
            <Array as="points">
              <mxPoint x="2801" y="1329" />
              <mxPoint x="2890" y="1329" />
            </Array>
            <mxPoint x="2890" y="1349" as="targetPoint" />
          </mxGeometry>
        </mxCell>
        <mxCell id="rxGvKUkwGFX3X11VJj27-71" value="False" style="text;html=1;align=center;verticalAlign=middle;resizable=0;points=[];autosize=1;strokeColor=none;fillColor=none;fontColor=#1D3557;" vertex="1" parent="1">
          <mxGeometry x="2540" y="1300" width="50" height="30" as="geometry" />
        </mxCell>
        <mxCell id="rxGvKUkwGFX3X11VJj27-72" value="True" style="text;html=1;align=center;verticalAlign=middle;resizable=0;points=[];autosize=1;strokeColor=none;fillColor=none;fontColor=#1D3557;" vertex="1" parent="1">
          <mxGeometry x="2820" y="1300" width="50" height="30" as="geometry" />
        </mxCell>
        <mxCell id="rxGvKUkwGFX3X11VJj27-73" value="if == 3" style="rhombus;whiteSpace=wrap;html=1;fillColor=#A8DADC;strokeColor=#457B9D;fontColor=#1D3557;strokeWidth=2;labelBackgroundColor=none;" vertex="1" parent="1">
          <mxGeometry x="2393" y="1390" width="160" height="80" as="geometry" />
        </mxCell>
        <mxCell id="rxGvKUkwGFX3X11VJj27-217" value="" style="edgeStyle=orthogonalEdgeStyle;rounded=0;orthogonalLoop=1;jettySize=auto;html=1;" edge="1" parent="1" source="rxGvKUkwGFX3X11VJj27-75" target="rxGvKUkwGFX3X11VJj27-216">
          <mxGeometry relative="1" as="geometry" />
        </mxCell>
        <mxCell id="rxGvKUkwGFX3X11VJj27-75" value="Input: &quot;Masukan&amp;nbsp;&lt;div&gt;jenis pembelian&amp;nbsp;&lt;/div&gt;&lt;div&gt;yang baru&quot;&lt;/div&gt;" style="shape=parallelogram;perimeter=parallelogramPerimeter;whiteSpace=wrap;html=1;fixedSize=1;fillColor=#A8DADC;strokeColor=#457B9D;fontColor=#1D3557;strokeWidth=2;labelBackgroundColor=none;align=center;" vertex="1" parent="1">
          <mxGeometry x="2820" y="1351" width="130" height="99" as="geometry" />
        </mxCell>
        <mxCell id="rxGvKUkwGFX3X11VJj27-76" value="" style="edgeStyle=orthogonalEdgeStyle;rounded=0;orthogonalLoop=1;jettySize=auto;html=1;strokeColor=#457B9D;fontColor=#1D3557;fillColor=#A8DADC;exitX=0.915;exitY=0.473;exitDx=0;exitDy=0;exitPerimeter=0;" edge="1" parent="1">
          <mxGeometry relative="1" as="geometry">
            <mxPoint x="2553" y="1428" as="sourcePoint" />
            <Array as="points">
              <mxPoint x="2553" y="1430" />
              <mxPoint x="2642" y="1430" />
            </Array>
            <mxPoint x="2642" y="1450" as="targetPoint" />
          </mxGeometry>
        </mxCell>
        <mxCell id="rxGvKUkwGFX3X11VJj27-77" value="" style="edgeStyle=orthogonalEdgeStyle;rounded=0;orthogonalLoop=1;jettySize=auto;html=1;strokeColor=#457B9D;fontColor=#1D3557;fillColor=#A8DADC;" edge="1" parent="1">
          <mxGeometry relative="1" as="geometry">
            <mxPoint x="2393" y="1430" as="sourcePoint" />
            <mxPoint x="2223" y="1490" as="targetPoint" />
          </mxGeometry>
        </mxCell>
        <mxCell id="rxGvKUkwGFX3X11VJj27-78" value="True" style="text;html=1;align=center;verticalAlign=middle;resizable=0;points=[];autosize=1;strokeColor=none;fillColor=none;fontColor=#1D3557;" vertex="1" parent="1">
          <mxGeometry x="2573.19" y="1400" width="50" height="30" as="geometry" />
        </mxCell>
        <mxCell id="rxGvKUkwGFX3X11VJj27-79" value="False" style="text;html=1;align=center;verticalAlign=middle;resizable=0;points=[];autosize=1;strokeColor=none;fillColor=none;fontColor=#1D3557;" vertex="1" parent="1">
          <mxGeometry x="2290" y="1400" width="50" height="30" as="geometry" />
        </mxCell>
        <mxCell id="rxGvKUkwGFX3X11VJj27-234" style="edgeStyle=orthogonalEdgeStyle;rounded=0;orthogonalLoop=1;jettySize=auto;html=1;exitX=0.5;exitY=1;exitDx=0;exitDy=0;entryX=1;entryY=0.5;entryDx=0;entryDy=0;" edge="1" parent="1" source="rxGvKUkwGFX3X11VJj27-81" target="rxGvKUkwGFX3X11VJj27-53">
          <mxGeometry relative="1" as="geometry">
            <Array as="points">
              <mxPoint x="2640" y="1730" />
              <mxPoint x="3240" y="1730" />
              <mxPoint x="3240" y="1014" />
            </Array>
          </mxGeometry>
        </mxCell>
        <mxCell id="rxGvKUkwGFX3X11VJj27-81" value="Output:&lt;div&gt;&quot;Jenis telah d&lt;/div&gt;&lt;div&gt;&quot;ihapus&lt;/div&gt;" style="shape=parallelogram;perimeter=parallelogramPerimeter;whiteSpace=wrap;html=1;fixedSize=1;fillColor=#A8DADC;strokeColor=#457B9D;fontColor=#1D3557;strokeWidth=2;labelBackgroundColor=none;align=center;" vertex="1" parent="1">
          <mxGeometry x="2575" y="1652" width="130" height="68" as="geometry" />
        </mxCell>
        <mxCell id="rxGvKUkwGFX3X11VJj27-87" value="&amp;nbsp; Input =&amp;nbsp;&lt;div&gt;&quot;Masukkan jenis&amp;nbsp;&lt;/div&gt;&lt;div&gt;tembakau yang&amp;nbsp;&lt;/div&gt;&lt;div&gt;di hapus&quot;&lt;/div&gt;" style="shape=parallelogram;perimeter=parallelogramPerimeter;whiteSpace=wrap;html=1;fixedSize=1;fillColor=#A8DADC;strokeColor=#457B9D;fontColor=#1D3557;strokeWidth=2;labelBackgroundColor=none;align=center;" vertex="1" parent="1">
          <mxGeometry x="2572.03" y="1451" width="130" height="68" as="geometry" />
        </mxCell>
        <mxCell id="rxGvKUkwGFX3X11VJj27-88" value="" style="edgeStyle=orthogonalEdgeStyle;rounded=0;orthogonalLoop=1;jettySize=auto;html=1;strokeColor=#457B9D;fontColor=#1D3557;fillColor=#A8DADC;" edge="1" parent="1">
          <mxGeometry relative="1" as="geometry">
            <mxPoint x="2642" y="1519" as="sourcePoint" />
            <mxPoint x="2642" y="1549" as="targetPoint" />
          </mxGeometry>
        </mxCell>
        <mxCell id="rxGvKUkwGFX3X11VJj27-96" value="Output =&amp;nbsp;&lt;div&gt;&quot;Film dengan ID&lt;/div&gt;&lt;div&gt;&amp;nbsp;{id_film} tidak&lt;/div&gt;&lt;div&gt;ditemukan.&quot;&lt;/div&gt;" style="shape=parallelogram;perimeter=parallelogramPerimeter;whiteSpace=wrap;html=1;fixedSize=1;fillColor=#A8DADC;strokeColor=#457B9D;fontColor=#1D3557;strokeWidth=2;labelBackgroundColor=none;align=center;" vertex="1" parent="1">
          <mxGeometry x="2154" y="1491" width="130" height="68" as="geometry" />
        </mxCell>
        <mxCell id="rxGvKUkwGFX3X11VJj27-97" value="" style="edgeStyle=orthogonalEdgeStyle;rounded=0;orthogonalLoop=1;jettySize=auto;html=1;strokeColor=#457B9D;fontColor=#1D3557;fillColor=#A8DADC;" edge="1" parent="1">
          <mxGeometry relative="1" as="geometry">
            <mxPoint x="2224" y="1558" as="sourcePoint" />
            <mxPoint x="2224" y="1588" as="targetPoint" />
          </mxGeometry>
        </mxCell>
        <mxCell id="rxGvKUkwGFX3X11VJj27-98" value="if == 4" style="rhombus;whiteSpace=wrap;html=1;fillColor=#A8DADC;strokeColor=#457B9D;fontColor=#1D3557;strokeWidth=2;labelBackgroundColor=none;" vertex="1" parent="1">
          <mxGeometry x="2145.29" y="1590" width="160" height="80" as="geometry" />
        </mxCell>
        <mxCell id="rxGvKUkwGFX3X11VJj27-99" value="" style="edgeStyle=orthogonalEdgeStyle;rounded=0;orthogonalLoop=1;jettySize=auto;html=1;strokeColor=#457B9D;fontColor=#1D3557;fillColor=#A8DADC;exitX=0.915;exitY=0.473;exitDx=0;exitDy=0;exitPerimeter=0;" edge="1" parent="1">
          <mxGeometry relative="1" as="geometry">
            <mxPoint x="2305.29" y="1628" as="sourcePoint" />
            <Array as="points">
              <mxPoint x="2305.29" y="1630" />
              <mxPoint x="2394.29" y="1630" />
            </Array>
            <mxPoint x="2394.29" y="1650" as="targetPoint" />
          </mxGeometry>
        </mxCell>
        <mxCell id="rxGvKUkwGFX3X11VJj27-100" value="" style="edgeStyle=orthogonalEdgeStyle;rounded=0;orthogonalLoop=1;jettySize=auto;html=1;strokeColor=#457B9D;fontColor=#1D3557;fillColor=#A8DADC;" edge="1" parent="1">
          <mxGeometry relative="1" as="geometry">
            <mxPoint x="2145.29" y="1630" as="sourcePoint" />
            <mxPoint x="1975.29" y="1690" as="targetPoint" />
          </mxGeometry>
        </mxCell>
        <mxCell id="rxGvKUkwGFX3X11VJj27-101" value="True" style="text;html=1;align=center;verticalAlign=middle;resizable=0;points=[];autosize=1;strokeColor=none;fillColor=none;fontColor=#1D3557;" vertex="1" parent="1">
          <mxGeometry x="2325.48" y="1600" width="50" height="30" as="geometry" />
        </mxCell>
        <mxCell id="rxGvKUkwGFX3X11VJj27-102" value="False" style="text;html=1;align=center;verticalAlign=middle;resizable=0;points=[];autosize=1;strokeColor=none;fillColor=none;fontColor=#1D3557;" vertex="1" parent="1">
          <mxGeometry x="2042.29" y="1600" width="50" height="30" as="geometry" />
        </mxCell>
        <mxCell id="rxGvKUkwGFX3X11VJj27-235" style="edgeStyle=orthogonalEdgeStyle;rounded=0;orthogonalLoop=1;jettySize=auto;html=1;exitX=0.5;exitY=1;exitDx=0;exitDy=0;entryX=1;entryY=0.25;entryDx=0;entryDy=0;" edge="1" parent="1" source="rxGvKUkwGFX3X11VJj27-103" target="rxGvKUkwGFX3X11VJj27-53">
          <mxGeometry relative="1" as="geometry">
            <Array as="points">
              <mxPoint x="2391" y="1750" />
              <mxPoint x="3270" y="1750" />
              <mxPoint x="3270" y="988" />
            </Array>
          </mxGeometry>
        </mxCell>
        <mxCell id="rxGvKUkwGFX3X11VJj27-103" value="Output:&lt;div&gt;&quot;Item&quot;&lt;/div&gt;" style="shape=parallelogram;perimeter=parallelogramPerimeter;whiteSpace=wrap;html=1;fixedSize=1;fillColor=#A8DADC;strokeColor=#457B9D;fontColor=#1D3557;strokeWidth=2;labelBackgroundColor=none;align=center;" vertex="1" parent="1">
          <mxGeometry x="2325.48" y="1652" width="130" height="68" as="geometry" />
        </mxCell>
        <mxCell id="rxGvKUkwGFX3X11VJj27-214" value="" style="edgeStyle=orthogonalEdgeStyle;rounded=0;orthogonalLoop=1;jettySize=auto;html=1;" edge="1" parent="1" source="rxGvKUkwGFX3X11VJj27-120" target="rxGvKUkwGFX3X11VJj27-213">
          <mxGeometry relative="1" as="geometry" />
        </mxCell>
        <mxCell id="rxGvKUkwGFX3X11VJj27-120" value="Input=&quot;Masukan&amp;nbsp;&amp;nbsp;&lt;div&gt;jenis pembelian tembakau&lt;span style=&quot;background-color: initial;&quot;&gt;&quot;&lt;/span&gt;&lt;/div&gt;" style="shape=parallelogram;perimeter=parallelogramPerimeter;whiteSpace=wrap;html=1;fixedSize=1;fillColor=#A8DADC;strokeColor=#457B9D;fontColor=#1D3557;strokeWidth=2;labelBackgroundColor=none;align=center;" vertex="1" parent="1">
          <mxGeometry x="3059.5" y="1290" width="130" height="70" as="geometry" />
        </mxCell>
        <mxCell id="rxGvKUkwGFX3X11VJj27-126" value="if status == &quot;pengguna&quot;" style="rhombus;whiteSpace=wrap;html=1;fillColor=#A8DADC;strokeColor=#457B9D;fontColor=#1D3557;strokeWidth=2;labelBackgroundColor=none;" vertex="1" parent="1">
          <mxGeometry x="3724.19" y="338" width="180" height="67.5" as="geometry" />
        </mxCell>
        <mxCell id="rxGvKUkwGFX3X11VJj27-228" style="edgeStyle=orthogonalEdgeStyle;rounded=0;orthogonalLoop=1;jettySize=auto;html=1;exitX=0;exitY=0;exitDx=0;exitDy=0;entryX=0.017;entryY=0.851;entryDx=0;entryDy=0;entryPerimeter=0;" edge="1" parent="1" source="rxGvKUkwGFX3X11VJj27-127" target="rxGvKUkwGFX3X11VJj27-53">
          <mxGeometry relative="1" as="geometry">
            <Array as="points">
              <mxPoint x="1930" y="1708" />
              <mxPoint x="1930" y="1052" />
            </Array>
          </mxGeometry>
        </mxCell>
        <mxCell id="rxGvKUkwGFX3X11VJj27-229" value="False" style="edgeLabel;html=1;align=center;verticalAlign=middle;resizable=0;points=[];" vertex="1" connectable="0" parent="rxGvKUkwGFX3X11VJj27-228">
          <mxGeometry x="-0.7786" y="1" relative="1" as="geometry">
            <mxPoint as="offset" />
          </mxGeometry>
        </mxCell>
        <mxCell id="rxGvKUkwGFX3X11VJj27-127" value="if == 5" style="rhombus;whiteSpace=wrap;html=1;fillColor=#A8DADC;strokeColor=#457B9D;fontColor=#1D3557;strokeWidth=2;labelBackgroundColor=none;" vertex="1" parent="1">
          <mxGeometry x="1894.9299999999998" y="1688" width="160" height="80" as="geometry" />
        </mxCell>
        <mxCell id="rxGvKUkwGFX3X11VJj27-138" value="&lt;font face=&quot;Verdana&quot;&gt;&amp;nbsp; &amp;nbsp;Output =&amp;nbsp;&lt;/font&gt;&lt;div&gt;&lt;font face=&quot;Gwa8SxlCsdu1uKtJ1fb-&quot;&gt;&quot; Sistem Pengguna&lt;/font&gt;&lt;/div&gt;&lt;div&gt;&lt;span style=&quot;background-color: initial; font-family: Gwa8SxlCsdu1uKtJ1fb-;&quot;&gt;1. Tambah Pembelian&lt;/span&gt;&lt;/div&gt;&lt;div&gt;&lt;span style=&quot;background-color: initial; font-family: Gwa8SxlCsdu1uKtJ1fb-;&quot;&gt;2.Lihat pembelian&lt;/span&gt;&lt;/div&gt;&lt;div&gt;&lt;span style=&quot;background-color: initial; font-family: Gwa8SxlCsdu1uKtJ1fb-;&quot;&gt;3. Log Out&quot;&lt;/span&gt;&lt;/div&gt;" style="shape=parallelogram;perimeter=parallelogramPerimeter;whiteSpace=wrap;html=1;fixedSize=1;fillColor=#A8DADC;strokeColor=#457B9D;fontColor=#1D3557;strokeWidth=2;labelBackgroundColor=none;align=center;" vertex="1" parent="1">
          <mxGeometry x="4291" y="410" width="180" height="102" as="geometry" />
        </mxCell>
        <mxCell id="rxGvKUkwGFX3X11VJj27-236" style="edgeStyle=orthogonalEdgeStyle;rounded=0;orthogonalLoop=1;jettySize=auto;html=1;exitX=1;exitY=0.5;exitDx=0;exitDy=0;" edge="1" parent="1" source="rxGvKUkwGFX3X11VJj27-139">
          <mxGeometry relative="1" as="geometry">
            <mxPoint x="4560" y="650" as="targetPoint" />
          </mxGeometry>
        </mxCell>
        <mxCell id="rxGvKUkwGFX3X11VJj27-139" value="if == 1" style="rhombus;whiteSpace=wrap;html=1;fillColor=#A8DADC;strokeColor=#457B9D;fontColor=#1D3557;strokeWidth=2;labelBackgroundColor=none;" vertex="1" parent="1">
          <mxGeometry x="4301" y="550" width="160" height="80" as="geometry" />
        </mxCell>
        <mxCell id="rxGvKUkwGFX3X11VJj27-141" value="" style="edgeStyle=orthogonalEdgeStyle;rounded=0;orthogonalLoop=1;jettySize=auto;html=1;strokeColor=#457B9D;fontColor=#1D3557;fillColor=#A8DADC;" edge="1" parent="1">
          <mxGeometry relative="1" as="geometry">
            <mxPoint x="4301" y="590" as="sourcePoint" />
            <mxPoint x="4171" y="650" as="targetPoint" />
          </mxGeometry>
        </mxCell>
        <mxCell id="rxGvKUkwGFX3X11VJj27-142" value="True" style="text;html=1;align=center;verticalAlign=middle;resizable=0;points=[];autosize=1;strokeColor=none;fillColor=none;fontColor=#1D3557;" vertex="1" parent="1">
          <mxGeometry x="4481.1900000000005" y="560" width="50" height="30" as="geometry" />
        </mxCell>
        <mxCell id="rxGvKUkwGFX3X11VJj27-143" value="False" style="text;html=1;align=center;verticalAlign=middle;resizable=0;points=[];autosize=1;strokeColor=none;fillColor=none;fontColor=#1D3557;" vertex="1" parent="1">
          <mxGeometry x="4219" y="560" width="50" height="30" as="geometry" />
        </mxCell>
        <mxCell id="rxGvKUkwGFX3X11VJj27-243" style="edgeStyle=orthogonalEdgeStyle;rounded=0;orthogonalLoop=1;jettySize=auto;html=1;exitX=0;exitY=0.5;exitDx=0;exitDy=0;entryX=0.5;entryY=0;entryDx=0;entryDy=0;" edge="1" parent="1" source="rxGvKUkwGFX3X11VJj27-146" target="rxGvKUkwGFX3X11VJj27-186">
          <mxGeometry relative="1" as="geometry" />
        </mxCell>
        <mxCell id="rxGvKUkwGFX3X11VJj27-244" value="False" style="edgeLabel;html=1;align=center;verticalAlign=middle;resizable=0;points=[];" vertex="1" connectable="0" parent="rxGvKUkwGFX3X11VJj27-243">
          <mxGeometry x="-0.5396" y="1" relative="1" as="geometry">
            <mxPoint x="1" as="offset" />
          </mxGeometry>
        </mxCell>
        <mxCell id="rxGvKUkwGFX3X11VJj27-146" value="if == 2" style="rhombus;whiteSpace=wrap;html=1;fillColor=#A8DADC;strokeColor=#457B9D;fontColor=#1D3557;strokeWidth=2;labelBackgroundColor=none;" vertex="1" parent="1">
          <mxGeometry x="4092" y="651" width="160" height="80" as="geometry" />
        </mxCell>
        <mxCell id="rxGvKUkwGFX3X11VJj27-147" value="" style="edgeStyle=orthogonalEdgeStyle;rounded=0;orthogonalLoop=1;jettySize=auto;html=1;strokeColor=#457B9D;fontColor=#1D3557;fillColor=#A8DADC;exitX=0.915;exitY=0.473;exitDx=0;exitDy=0;exitPerimeter=0;" edge="1" parent="1">
          <mxGeometry relative="1" as="geometry">
            <mxPoint x="4252" y="689" as="sourcePoint" />
            <Array as="points">
              <mxPoint x="4252" y="691" />
              <mxPoint x="4341" y="691" />
              <mxPoint x="4341" y="771" />
            </Array>
            <mxPoint x="4341" y="771" as="targetPoint" />
          </mxGeometry>
        </mxCell>
        <mxCell id="rxGvKUkwGFX3X11VJj27-149" value="True" style="text;html=1;align=center;verticalAlign=middle;resizable=0;points=[];autosize=1;strokeColor=none;fillColor=none;fontColor=#1D3557;" vertex="1" parent="1">
          <mxGeometry x="4272.1900000000005" y="661" width="50" height="30" as="geometry" />
        </mxCell>
        <mxCell id="rxGvKUkwGFX3X11VJj27-162" value="&lt;font face=&quot;Verdana&quot;&gt;&amp;nbsp; &amp;nbsp;Output =&amp;nbsp;&lt;/font&gt;&lt;div&gt;&lt;font face=&quot;Gwa8SxlCsdu1uKtJ1fb-&quot;&gt;&quot;item&quot;&lt;/font&gt;&lt;/div&gt;" style="shape=parallelogram;perimeter=parallelogramPerimeter;whiteSpace=wrap;html=1;fixedSize=1;fillColor=#A8DADC;strokeColor=#457B9D;fontColor=#1D3557;strokeWidth=2;labelBackgroundColor=none;align=center;" vertex="1" parent="1">
          <mxGeometry x="4248" y="772.5" width="180" height="112" as="geometry" />
        </mxCell>
        <mxCell id="rxGvKUkwGFX3X11VJj27-242" style="edgeStyle=orthogonalEdgeStyle;rounded=0;orthogonalLoop=1;jettySize=auto;html=1;exitX=0;exitY=1;exitDx=0;exitDy=0;entryX=0.5;entryY=0;entryDx=0;entryDy=0;" edge="1" parent="1" source="rxGvKUkwGFX3X11VJj27-186" target="rxGvKUkwGFX3X11VJj27-193">
          <mxGeometry relative="1" as="geometry" />
        </mxCell>
        <mxCell id="rxGvKUkwGFX3X11VJj27-245" value="False" style="edgeLabel;html=1;align=center;verticalAlign=middle;resizable=0;points=[];" vertex="1" connectable="0" parent="rxGvKUkwGFX3X11VJj27-242">
          <mxGeometry x="-0.3816" y="4" relative="1" as="geometry">
            <mxPoint as="offset" />
          </mxGeometry>
        </mxCell>
        <mxCell id="rxGvKUkwGFX3X11VJj27-246" style="edgeStyle=orthogonalEdgeStyle;rounded=0;orthogonalLoop=1;jettySize=auto;html=1;exitX=1;exitY=1;exitDx=0;exitDy=0;entryX=1;entryY=0.5;entryDx=0;entryDy=0;" edge="1" parent="1" source="rxGvKUkwGFX3X11VJj27-186" target="rxGvKUkwGFX3X11VJj27-12">
          <mxGeometry relative="1" as="geometry">
            <mxPoint x="2748" y="180" as="targetPoint" />
            <Array as="points">
              <mxPoint x="3957" y="990" />
              <mxPoint x="4820" y="990" />
              <mxPoint x="4820" y="180" />
            </Array>
          </mxGeometry>
        </mxCell>
        <mxCell id="rxGvKUkwGFX3X11VJj27-247" value="True" style="edgeLabel;html=1;align=center;verticalAlign=middle;resizable=0;points=[];" vertex="1" connectable="0" parent="rxGvKUkwGFX3X11VJj27-246">
          <mxGeometry x="-0.9749" y="1" relative="1" as="geometry">
            <mxPoint y="-1" as="offset" />
          </mxGeometry>
        </mxCell>
        <mxCell id="rxGvKUkwGFX3X11VJj27-186" value="if == 4" style="rhombus;whiteSpace=wrap;html=1;fillColor=#A8DADC;strokeColor=#457B9D;fontColor=#1D3557;strokeWidth=2;labelBackgroundColor=none;" vertex="1" parent="1">
          <mxGeometry x="3836.79" y="788.5" width="160" height="80" as="geometry" />
        </mxCell>
        <mxCell id="rxGvKUkwGFX3X11VJj27-192" style="edgeStyle=orthogonalEdgeStyle;rounded=0;orthogonalLoop=1;jettySize=auto;html=1;exitX=0.5;exitY=1;exitDx=0;exitDy=0;" edge="1" parent="1" source="rxGvKUkwGFX3X11VJj27-193">
          <mxGeometry relative="1" as="geometry">
            <mxPoint x="4300" y="461" as="targetPoint" />
            <Array as="points">
              <mxPoint x="3764" y="1070" />
              <mxPoint x="3630" y="1070" />
              <mxPoint x="3630" y="461" />
            </Array>
          </mxGeometry>
        </mxCell>
        <mxCell id="rxGvKUkwGFX3X11VJj27-193" value="Output = &quot; Pilihan&amp;nbsp;&lt;div&gt;&lt;span style=&quot;background-color: initial;&quot;&gt;tidak valid &quot;&lt;/span&gt;&lt;/div&gt;" style="shape=parallelogram;perimeter=parallelogramPerimeter;whiteSpace=wrap;html=1;fixedSize=1;fillColor=#A8DADC;strokeColor=#457B9D;fontColor=#1D3557;strokeWidth=2;labelBackgroundColor=none;align=center;" vertex="1" parent="1">
          <mxGeometry x="3691.6" y="915" width="145.19" height="65" as="geometry" />
        </mxCell>
        <mxCell id="rxGvKUkwGFX3X11VJj27-197" style="edgeStyle=orthogonalEdgeStyle;rounded=0;orthogonalLoop=1;jettySize=auto;html=1;exitX=0.5;exitY=1;exitDx=0;exitDy=0;" edge="1" parent="1">
          <mxGeometry relative="1" as="geometry">
            <mxPoint x="2143" y="1962.9999999999995" as="sourcePoint" />
            <mxPoint x="2143" y="1962.9999999999995" as="targetPoint" />
          </mxGeometry>
        </mxCell>
        <mxCell id="rxGvKUkwGFX3X11VJj27-198" value="&lt;font color=&quot;#000000&quot;&gt;End&lt;/font&gt;" style="strokeWidth=2;html=1;shape=mxgraph.flowchart.terminator;whiteSpace=wrap;align=center;fillColor=#A8DADC;strokeColor=#457B9D;fontStyle=1;labelBackgroundColor=none;fontColor=#1D3557;" vertex="1" parent="1">
          <mxGeometry x="3756.79" y="2623" width="80" height="30" as="geometry" />
        </mxCell>
        <mxCell id="rxGvKUkwGFX3X11VJj27-203" style="edgeStyle=orthogonalEdgeStyle;rounded=0;orthogonalLoop=1;jettySize=auto;html=1;exitX=1;exitY=0.5;exitDx=0;exitDy=0;entryX=0.052;entryY=0.416;entryDx=0;entryDy=0;entryPerimeter=0;" edge="1" parent="1" source="rxGvKUkwGFX3X11VJj27-126" target="rxGvKUkwGFX3X11VJj27-138">
          <mxGeometry relative="1" as="geometry">
            <Array as="points">
              <mxPoint x="4300" y="445" />
            </Array>
          </mxGeometry>
        </mxCell>
        <mxCell id="rxGvKUkwGFX3X11VJj27-232" style="edgeStyle=orthogonalEdgeStyle;rounded=0;orthogonalLoop=1;jettySize=auto;html=1;exitX=0.5;exitY=1;exitDx=0;exitDy=0;entryX=1;entryY=1;entryDx=0;entryDy=0;" edge="1" parent="1" source="rxGvKUkwGFX3X11VJj27-208" target="rxGvKUkwGFX3X11VJj27-53">
          <mxGeometry relative="1" as="geometry">
            <Array as="points">
              <mxPoint x="3125" y="1590" />
              <mxPoint x="3200" y="1590" />
              <mxPoint x="3200" y="1058" />
            </Array>
          </mxGeometry>
        </mxCell>
        <mxCell id="rxGvKUkwGFX3X11VJj27-208" value="Output:&lt;div&gt;&quot;Item di tambahkan&lt;/div&gt;" style="shape=parallelogram;perimeter=parallelogramPerimeter;whiteSpace=wrap;html=1;fixedSize=1;fillColor=#A8DADC;strokeColor=#457B9D;fontColor=#1D3557;strokeWidth=2;labelBackgroundColor=none;align=center;" vertex="1" parent="1">
          <mxGeometry x="3059.5" y="1500" width="130" height="70" as="geometry" />
        </mxCell>
        <mxCell id="rxGvKUkwGFX3X11VJj27-215" style="edgeStyle=orthogonalEdgeStyle;rounded=0;orthogonalLoop=1;jettySize=auto;html=1;exitX=0.5;exitY=1;exitDx=0;exitDy=0;entryX=0.5;entryY=0;entryDx=0;entryDy=0;" edge="1" parent="1" source="rxGvKUkwGFX3X11VJj27-213" target="rxGvKUkwGFX3X11VJj27-208">
          <mxGeometry relative="1" as="geometry" />
        </mxCell>
        <mxCell id="rxGvKUkwGFX3X11VJj27-213" value="item = [ ]" style="shape=process;whiteSpace=wrap;html=1;backgroundOutline=1;fillColor=#A8DADC;strokeColor=#457B9D;fontColor=#1D3557;strokeWidth=2;labelBackgroundColor=none;" vertex="1" parent="1">
          <mxGeometry x="3064.5" y="1400" width="120" height="60" as="geometry" />
        </mxCell>
        <mxCell id="rxGvKUkwGFX3X11VJj27-219" value="" style="edgeStyle=orthogonalEdgeStyle;rounded=0;orthogonalLoop=1;jettySize=auto;html=1;" edge="1" parent="1" source="rxGvKUkwGFX3X11VJj27-216" target="rxGvKUkwGFX3X11VJj27-218">
          <mxGeometry relative="1" as="geometry" />
        </mxCell>
        <mxCell id="rxGvKUkwGFX3X11VJj27-216" value="Item = [ ]" style="shape=process;whiteSpace=wrap;html=1;backgroundOutline=1;fillColor=#A8DADC;strokeColor=#457B9D;fontColor=#1D3557;strokeWidth=2;labelBackgroundColor=none;" vertex="1" parent="1">
          <mxGeometry x="2825" y="1490" width="120" height="60" as="geometry" />
        </mxCell>
        <mxCell id="rxGvKUkwGFX3X11VJj27-233" style="edgeStyle=orthogonalEdgeStyle;rounded=0;orthogonalLoop=1;jettySize=auto;html=1;exitX=0.5;exitY=1;exitDx=0;exitDy=0;entryX=1;entryY=0.75;entryDx=0;entryDy=0;" edge="1" parent="1" source="rxGvKUkwGFX3X11VJj27-218" target="rxGvKUkwGFX3X11VJj27-53">
          <mxGeometry relative="1" as="geometry">
            <Array as="points">
              <mxPoint x="2885" y="1710" />
              <mxPoint x="3220" y="1710" />
              <mxPoint x="3220" y="1037" />
            </Array>
          </mxGeometry>
        </mxCell>
        <mxCell id="rxGvKUkwGFX3X11VJj27-218" value="Output:&amp;nbsp;&lt;div&gt;&quot;jenis baru di tambahkan&quot;&lt;/div&gt;" style="shape=parallelogram;perimeter=parallelogramPerimeter;whiteSpace=wrap;html=1;fixedSize=1;fillColor=#A8DADC;strokeColor=#457B9D;fontColor=#1D3557;strokeWidth=2;labelBackgroundColor=none;" vertex="1" parent="1">
          <mxGeometry x="2825" y="1630" width="120" height="60" as="geometry" />
        </mxCell>
        <mxCell id="rxGvKUkwGFX3X11VJj27-223" style="edgeStyle=orthogonalEdgeStyle;rounded=0;orthogonalLoop=1;jettySize=auto;html=1;exitX=0.5;exitY=1;exitDx=0;exitDy=0;entryX=0.5;entryY=0;entryDx=0;entryDy=0;" edge="1" parent="1" source="rxGvKUkwGFX3X11VJj27-222" target="rxGvKUkwGFX3X11VJj27-81">
          <mxGeometry relative="1" as="geometry" />
        </mxCell>
        <mxCell id="rxGvKUkwGFX3X11VJj27-222" value="Item = [ ]" style="shape=process;whiteSpace=wrap;html=1;backgroundOutline=1;fillColor=#A8DADC;strokeColor=#457B9D;fontColor=#1D3557;strokeWidth=2;labelBackgroundColor=none;" vertex="1" parent="1">
          <mxGeometry x="2580" y="1550" width="120" height="60" as="geometry" />
        </mxCell>
        <mxCell id="rxGvKUkwGFX3X11VJj27-231" style="edgeStyle=orthogonalEdgeStyle;rounded=0;orthogonalLoop=1;jettySize=auto;html=1;exitX=1;exitY=1;exitDx=0;exitDy=0;entryX=0.968;entryY=0.165;entryDx=0;entryDy=0;entryPerimeter=0;" edge="1" parent="1" source="rxGvKUkwGFX3X11VJj27-127" target="rxGvKUkwGFX3X11VJj27-12">
          <mxGeometry relative="1" as="geometry">
            <Array as="points">
              <mxPoint x="2015" y="1880" />
              <mxPoint x="5080" y="1880" />
              <mxPoint x="5080" y="160" />
            </Array>
          </mxGeometry>
        </mxCell>
        <mxCell id="rxGvKUkwGFX3X11VJj27-240" style="edgeStyle=orthogonalEdgeStyle;rounded=0;orthogonalLoop=1;jettySize=auto;html=1;exitX=0.5;exitY=1;exitDx=0;exitDy=0;" edge="1" parent="1" source="rxGvKUkwGFX3X11VJj27-237" target="rxGvKUkwGFX3X11VJj27-239">
          <mxGeometry relative="1" as="geometry" />
        </mxCell>
        <mxCell id="rxGvKUkwGFX3X11VJj27-237" value="Input=&quot;Masukan&amp;nbsp;&amp;nbsp;&lt;div&gt;item pembelian tembakau&lt;span style=&quot;background-color: initial;&quot;&gt;&quot;&lt;/span&gt;&lt;/div&gt;" style="shape=parallelogram;perimeter=parallelogramPerimeter;whiteSpace=wrap;html=1;fixedSize=1;fillColor=#A8DADC;strokeColor=#457B9D;fontColor=#1D3557;strokeWidth=2;labelBackgroundColor=none;align=center;" vertex="1" parent="1">
          <mxGeometry x="4490" y="651" width="130" height="70" as="geometry" />
        </mxCell>
        <mxCell id="rxGvKUkwGFX3X11VJj27-248" style="edgeStyle=orthogonalEdgeStyle;rounded=0;orthogonalLoop=1;jettySize=auto;html=1;exitX=1;exitY=0.5;exitDx=0;exitDy=0;entryX=1;entryY=0.5;entryDx=0;entryDy=0;" edge="1" parent="1" source="rxGvKUkwGFX3X11VJj27-238" target="rxGvKUkwGFX3X11VJj27-138">
          <mxGeometry relative="1" as="geometry">
            <Array as="points">
              <mxPoint x="4710" y="896" />
              <mxPoint x="4710" y="461" />
            </Array>
          </mxGeometry>
        </mxCell>
        <mxCell id="rxGvKUkwGFX3X11VJj27-238" value="Output:&lt;div&gt;&quot;Item di tambahkan&lt;/div&gt;" style="shape=parallelogram;perimeter=parallelogramPerimeter;whiteSpace=wrap;html=1;fixedSize=1;fillColor=#A8DADC;strokeColor=#457B9D;fontColor=#1D3557;strokeWidth=2;labelBackgroundColor=none;align=center;" vertex="1" parent="1">
          <mxGeometry x="4490" y="861" width="130" height="70" as="geometry" />
        </mxCell>
        <mxCell id="rxGvKUkwGFX3X11VJj27-241" style="edgeStyle=orthogonalEdgeStyle;rounded=0;orthogonalLoop=1;jettySize=auto;html=1;exitX=0.5;exitY=1;exitDx=0;exitDy=0;entryX=0.5;entryY=0;entryDx=0;entryDy=0;" edge="1" parent="1" source="rxGvKUkwGFX3X11VJj27-239" target="rxGvKUkwGFX3X11VJj27-238">
          <mxGeometry relative="1" as="geometry" />
        </mxCell>
        <mxCell id="rxGvKUkwGFX3X11VJj27-239" value="item = [ ]" style="shape=process;whiteSpace=wrap;html=1;backgroundOutline=1;fillColor=#A8DADC;strokeColor=#457B9D;fontColor=#1D3557;strokeWidth=2;labelBackgroundColor=none;" vertex="1" parent="1">
          <mxGeometry x="4495" y="761" width="120" height="60" as="geometry" />
        </mxCell>
        <mxCell id="rxGvKUkwGFX3X11VJj27-250" style="edgeStyle=orthogonalEdgeStyle;rounded=0;orthogonalLoop=1;jettySize=auto;html=1;exitX=0;exitY=0;exitDx=0;exitDy=0;entryX=0;entryY=0.5;entryDx=0;entryDy=0;" edge="1" parent="1" source="rxGvKUkwGFX3X11VJj27-249" target="rxGvKUkwGFX3X11VJj27-12">
          <mxGeometry relative="1" as="geometry">
            <Array as="points">
              <mxPoint x="1740" y="520" />
              <mxPoint x="1740" y="180" />
            </Array>
          </mxGeometry>
        </mxCell>
        <mxCell id="rxGvKUkwGFX3X11VJj27-251" value="False" style="edgeLabel;html=1;align=center;verticalAlign=middle;resizable=0;points=[];" vertex="1" connectable="0" parent="rxGvKUkwGFX3X11VJj27-250">
          <mxGeometry x="-0.9536" y="-3" relative="1" as="geometry">
            <mxPoint as="offset" />
          </mxGeometry>
        </mxCell>
        <mxCell id="rxGvKUkwGFX3X11VJj27-252" style="edgeStyle=orthogonalEdgeStyle;rounded=0;orthogonalLoop=1;jettySize=auto;html=1;exitX=0.5;exitY=1;exitDx=0;exitDy=0;" edge="1" parent="1" source="rxGvKUkwGFX3X11VJj27-249" target="rxGvKUkwGFX3X11VJj27-198">
          <mxGeometry relative="1" as="geometry">
            <Array as="points">
              <mxPoint x="1820" y="2638" />
            </Array>
          </mxGeometry>
        </mxCell>
        <mxCell id="rxGvKUkwGFX3X11VJj27-253" value="True" style="edgeLabel;html=1;align=center;verticalAlign=middle;resizable=0;points=[];" vertex="1" connectable="0" parent="rxGvKUkwGFX3X11VJj27-252">
          <mxGeometry x="-0.9815" y="1" relative="1" as="geometry">
            <mxPoint as="offset" />
          </mxGeometry>
        </mxCell>
        <mxCell id="rxGvKUkwGFX3X11VJj27-249" value="if&amp;nbsp; = 3" style="rhombus;whiteSpace=wrap;html=1;fillColor=#b1ddf0;strokeColor=#10739e;" vertex="1" parent="1">
          <mxGeometry x="1770" y="500" width="100" height="80" as="geometry" />
        </mxCell>
      </root>
    </mxGraphModel>
  </diagram>
</mxfile>
